<svg width="1920" height="240" viewBox="0 0 1920 240" xmlns="http://www.w3.org/2000/svg"><rect width="1920" height="240" fill="#6266f5"/><path d="M 0,240 C 0,240 0,80 0,80 C 98.11538461538461,76.72307692307692 196.23076923076923,73.44615384615385 303,72 C 409.7692307692308,70.55384615384615 525.1923076923077,70.93846153846154 640,65 C 754.8076923076923,59.06153846153846 869,46.8 968,52 C 1067,57.2 1150.8076923076926,79.86153846153846 1252,89 C 1353.1923076923074,98.13846153846154 1471.7692307692307,93.75384615384615 1586,90 C 1700.2307692307693,86.24615384615385 1810.1153846153848,83.12307692307692 1920,80 C 1920,80 1920,240 1920,240 Z" fill="#2c2c2c" opacity="0.19999999999999998"/><path d="M 0,240 C 0,240 0,160 0,160 C 81.91538461538462,152.99743589743588 163.83076923076925,145.99487179487178 291,145 C 418.16923076923075,144.00512820512822 590.5923076923077,149.01794871794874 694,153 C 797.4076923076923,156.98205128205126 831.8000000000002,159.9333333333333 932,166 C 1032.1999999999998,172.0666666666667 1198.2076923076922,181.24871794871797 1327,179 C 1455.7923076923078,176.75128205128203 1547.3692307692306,163.07179487179485 1640,158 C 1732.6307692307694,152.92820512820515 1826.3153846153846,156.46410256410257 1920,160 C 1920,160 1920,240 1920,240 Z" fill="#2c2c2c" opacity="0.39999999999999997"/></svg>